<svg xmlns="http://www.w3.org/2000/svg" viewBox="170 320 500 500">
  <g fill="currentColor">
    <path
      d="M635.49,465.83c51.54,116.09-.79,251.98-116.88,303.52-116.09,51.54-251.98-.8-303.53-116.89-51.53-116.1.81-251.98,116.89-303.52,116.1-51.53,251.98.79,303.51,116.89Z" />
    <path
      d="M516.19,785.14l10.11-18.54s47.35-24.1,47-95.7l16.12,9.41s-4.26,37.4-4.93,41.26c-.66,3.86-6.69,18.04-7.36,19.84-.67,1.81-29.09,40.51-60.95,43.74Z" />
    <path
      d="M268.61,774.74l8.64-29.88s158.68-119.82,157.91-217.09l15.62,18.28-12.04,53.72-19.81,38.34-150.32,136.63Z" />
    <circle cx="522.72" cy="369.78" r="42" />
  </g>
</svg>